<svg width="24" height="24" viewBox="0 0 24 24" fill="none" xmlns="http://www.w3.org/2000/svg">
<g clip-path="url(#clip0_3_13)">
<path fill-rule="evenodd" clip-rule="evenodd" d="M3.00002 3C1.34317 3 1.52588e-05 4.34315 1.52588e-05 6V15C1.52588e-05 16.3121 0.842381 17.4275 2.01583 17.8348C2.18438 19.6108 3.67996 21 5.50002 21C7.26326 21 8.72195 19.6961 8.96457 18H15.0354C15.2781 19.6961 16.7368 21 18.5 21C20.3201 21 21.8156 19.6108 21.9842 17.8348C23.1576 17.4275 24 16.3121 24 15V10.7515C24 10.0248 23.7362 9.32283 23.2577 8.77596L20.8502 6.02449C20.2805 5.37344 19.4576 5 18.5925 5H16.8293C16.4175 3.83481 15.3062 3 14 3H3.00002ZM4.00002 17.4361V17.5639C4.0335 18.3634 4.69226 19.0013 5.50002 19.0013C6.30778 19.0013 6.96654 18.3634 7.00002 17.5639V17.4361C6.96654 16.6366 6.30778 15.9987 5.50002 15.9987C4.69226 15.9987 4.0335 16.6366 4.00002 17.4361ZM5.50002 14C6.89622 14 8.10147 14.8175 8.6632 16H15.3368C15.8985 14.8175 17.1038 14 18.5 14C19.8245 14 20.9771 14.7357 21.5716 15.8207C21.8306 15.64 22 15.3398 22 15V11H17C15.8954 11 15 10.1046 15 9V6C15 5.44772 14.5523 5 14 5H3.00002C2.44774 5 2.00002 5.44772 2.00002 6V15C2.00002 15.3398 2.16947 15.64 2.42847 15.8207C3.02294 14.7357 4.17557 14 5.50002 14ZM17 7V8C17 8.55229 17.4477 9 18 9H20.7962L19.345 7.34149C19.1552 7.12448 18.8808 7 18.5925 7H17ZM17 17.4361V17.5639C17.0335 18.3634 17.6922 19.0013 18.5 19.0013C19.3078 19.0013 19.9665 18.3634 20 17.5639V17.4361C19.9665 16.6366 19.3078 15.9987 18.5 15.9987C17.6922 15.9987 17.0335 16.6366 17 17.4361Z" fill="black"/>
</g>
<defs>
<clipPath id="clip0_3_13">
<rect width="24" height="24" fill="white"/>
</clipPath>
</defs>
</svg>
