<svg width="24" height="24" viewBox="0 0 24 24" fill="none" xmlns="http://www.w3.org/2000/svg">
<g clip-path="url(#clip0_3_36)">
<path d="M1.51199 21V22.512C1.51199 22.928 1.65599 23.28 1.94399 23.568C2.23199 23.856 2.58399 24 2.99999 24V21H1.51199ZM1.51199 18.768C1.51199 18.96 1.58399 19.136 1.72799 19.296C1.87199 19.456 2.04799 19.528 2.25599 19.512H3.74399C3.95199 19.512 4.12799 19.44 4.27199 19.296C4.41599 19.152 4.49599 18.976 4.51199 18.768C4.52799 18.56 4.44799 18.384 4.27199 18.24C4.09599 18.096 3.91999 18.016 3.74399 18H2.25599C2.04799 18 1.87199 18.08 1.72799 18.24C1.58399 18.4 1.51199 18.576 1.51199 18.768ZM1.51199 16.512H2.99999V7.512H1.51199V16.512ZM1.51199 5.256C1.51199 5.464 1.58399 5.64 1.72799 5.784C1.87199 5.928 2.04799 6 2.25599 6H3.74399C3.95199 6 4.12799 5.928 4.27199 5.784C4.41599 5.64 4.49599 5.464 4.51199 5.256C4.52799 5.048 4.44799 4.872 4.27199 4.728C4.09599 4.584 3.91999 4.512 3.74399 4.512H2.25599C2.04799 4.512 1.87199 4.584 1.72799 4.728C1.58399 4.872 1.51199 5.048 1.51199 5.256ZM1.51199 3H2.99999V0C2.58399 0 2.23199 0.152 1.94399 0.456C1.65599 0.76 1.51199 1.112 1.51199 1.512V3ZM4.51199 21V22.512C4.51199 22.928 4.65599 23.28 4.94399 23.568C5.23199 23.856 5.58399 24 5.99999 24H21C21.416 24 21.768 23.856 22.056 23.568C22.344 23.28 22.496 22.928 22.512 22.512V1.512C22.512 1.096 22.36 0.744 22.056 0.456C21.752 0.168 21.4 0.016 21 0H5.99999C5.58399 0 5.23199 0.152 4.94399 0.456C4.65599 0.76 4.51199 1.112 4.51199 1.512V3C4.91199 3 5.26399 3.152 5.56799 3.456C5.87199 3.76 6.01599 4.112 5.99999 4.512V6C5.99999 6.416 5.85599 6.776 5.56799 7.08C5.27999 7.384 4.92799 7.528 4.51199 7.512V16.512C4.91199 16.512 5.26399 16.656 5.56799 16.944C5.87199 17.232 6.01599 17.584 5.99999 18V19.512C5.99999 19.928 5.85599 20.28 5.56799 20.568C5.27999 20.856 4.92799 21 4.51199 21ZM8.99999 15.768C9.11199 15.096 9.37599 14.48 9.79199 13.92C10.208 13.36 10.72 12.912 11.328 12.576C10.784 12 10.512 11.312 10.512 10.512V9C10.512 8.184 10.8 7.48 11.376 6.888C11.952 6.296 12.664 6 13.512 6C14.36 6 15.064 6.296 15.624 6.888C16.184 7.48 16.48 8.184 16.512 9V10.512C16.512 11.312 16.232 12 15.672 12.576C16.264 12.912 16.776 13.36 17.208 13.92C17.64 14.48 17.904 15.096 18 15.768C18 16.392 17.784 16.92 17.352 17.352C16.92 17.784 16.384 18 15.744 18H11.256C10.632 18 10.096 17.784 9.64799 17.352C9.19999 16.92 8.98399 16.392 8.99999 15.768Z" fill="black"/>
</g>
<defs>
<clipPath id="clip0_3_36">
<rect width="24" height="24" fill="white"/>
</clipPath>
</defs>
</svg>
