<svg width="16" height="16" viewBox="0 0 16 16" fill="none" xmlns="http://www.w3.org/2000/svg">
<path d="M3.93859 14.1641H12.0681C13.4676 14.1641 14.1641 13.4676 14.1641 12.0882V3.91183C14.1641 2.53237 13.4676 1.83595 12.0681 1.83595H3.93859C2.54574 1.83595 1.83591 2.52566 1.83591 3.91183V12.0882C1.83591 13.4743 2.54574 14.1641 3.93859 14.1641ZM3.95868 13.0859C3.28905 13.0859 2.91405 12.731 2.91405 12.0346V3.9654C2.91405 3.26897 3.28905 2.91406 3.95868 2.91406H12.048C12.7109 2.91406 13.0859 3.26897 13.0859 3.9654V12.0346C13.0859 12.731 12.7109 13.0859 12.048 13.0859H3.95868ZM8.01002 10.1395C9.19528 10.1395 10.1663 9.18192 10.1663 7.98326C10.1663 6.798 9.19528 5.83372 8.01002 5.83372C6.81805 5.83372 5.84708 6.798 5.84708 7.98326C5.84708 9.18192 6.81805 10.1395 8.01002 10.1395Z" fill="black"/>
</svg>
