<svg width="19" height="23" viewBox="0 0 19 23" fill="none" xmlns="http://www.w3.org/2000/svg">
<path d="M9.5 10.1087C9.96973 10.1087 10.4289 9.97372 10.8195 9.72077C11.21 9.46782 11.5145 9.10829 11.6942 8.68766C11.874 8.26702 11.921 7.80416 11.8294 7.35761C11.7377 6.91107 11.5115 6.50089 11.1794 6.17894C10.8472 5.857 10.424 5.63776 9.96334 5.54893C9.50264 5.46011 9.0251 5.5057 8.59113 5.67993C8.15715 5.85416 7.78623 6.14922 7.52526 6.52778C7.26429 6.90635 7.125 7.35142 7.125 7.80671C7.125 8.41724 7.37522 9.00277 7.82062 9.43448C8.26602 9.86619 8.87011 10.1087 9.5 10.1087ZM8.65687 18.0622C8.76727 18.1701 8.89861 18.2557 9.04331 18.3141C9.18802 18.3726 9.34324 18.4026 9.5 18.4026C9.65676 18.4026 9.81198 18.3726 9.95669 18.3141C10.1014 18.2557 10.2327 18.1701 10.3431 18.0622L15.2 13.3431C16.3281 12.2502 17.0964 10.8577 17.4079 9.34153C17.7193 7.8254 17.5599 6.25378 16.9498 4.82548C16.3396 3.39718 15.3061 2.17635 13.9801 1.31741C12.654 0.458465 11.0949 0 9.5 0C7.90509 0 6.34599 0.458465 5.01993 1.31741C3.69386 2.17635 2.6604 3.39718 2.05024 4.82548C1.44009 6.25378 1.28066 7.8254 1.59211 9.34153C1.90357 10.8577 2.67193 12.2502 3.8 13.3431L8.65687 18.0622ZM3.83562 7.27725C3.91676 6.4566 4.18596 5.66388 4.62356 4.95695C5.06116 4.25003 5.65612 3.64675 6.365 3.19118C7.29624 2.59852 8.38596 2.28276 9.5 2.28276C10.614 2.28276 11.7038 2.59852 12.635 3.19118C13.3391 3.64519 13.9307 4.24481 14.3672 4.9469C14.8037 5.649 15.0743 6.43613 15.1595 7.25168C15.2446 8.06724 15.1423 8.89095 14.8598 9.66358C14.5773 10.4362 14.1216 11.1386 13.5256 11.7201L9.5 15.622L5.47437 11.7201C4.87768 11.1442 4.42098 10.4466 4.13749 9.67802C3.85401 8.90946 3.75089 8.08931 3.83562 7.27725ZM17.8125 20.698H1.1875C0.872555 20.698 0.57051 20.8193 0.347811 21.0351C0.125111 21.251 0 21.5437 0 21.849C0 22.1543 0.125111 22.447 0.347811 22.6629C0.57051 22.8787 0.872555 23 1.1875 23H17.8125C18.1274 23 18.4295 22.8787 18.6522 22.6629C18.8749 22.447 19 22.1543 19 21.849C19 21.5437 18.8749 21.251 18.6522 21.0351C18.4295 20.8193 18.1274 20.698 17.8125 20.698Z" fill="black"/>
</svg>
