<svg width="24" height="24" viewBox="0 0 24 24" fill="none" xmlns="http://www.w3.org/2000/svg">
<g clip-path="url(#clip0_3_41)">
<path d="M23.5605 10.9395L13.0605 0.4395C12.7792 0.15825 12.3982 0 12 0H1.5C0.670875 0 0 0.670875 0 1.5V12C0 12.3982 0.15825 12.7792 0.4395 13.0605L10.9395 23.5605C11.2324 23.8534 11.6164 24 12 24C12.3836 24 12.7676 23.8534 13.0605 23.5605L23.5605 13.0605C24.1466 12.4747 24.1466 11.5253 23.5605 10.9395ZM7.5 10.5015C5.84325 10.5015 4.5 9.15825 4.5 7.5015C4.5 5.84475 5.84325 4.5015 7.5 4.5015C9.15675 4.5015 10.5 5.84475 10.5 7.5015C10.5 9.15825 9.15675 10.5015 7.5 10.5015Z" fill="black"/>
</g>
<defs>
<clipPath id="clip0_3_41">
<rect width="24" height="24" fill="white"/>
</clipPath>
</defs>
</svg>
